<?xml version="1.0" standalone="no"?>
<!DOCTYPE svg PUBLIC "-//W3C//DTD SVG 20010904//EN"
 "http://www.w3.org/TR/2001/REC-SVG-20010904/DTD/svg10.dtd">
<svg version="1.0" xmlns="http://www.w3.org/2000/svg"
 width="45.000000pt" height="45.000000pt" viewBox="0 0 512.000000 512.000000"
 preserveAspectRatio="xMidYMid meet">

<g transform="translate(0.000000,512.000000) scale(0.100000,-0.100000)"
fill="#000000" stroke="none">
<path d="M2479 4807 c-19 -13 -258 -310 -544 -677 l-510 -655 -395 -5 c-427
-6 -425 -6 -525 -64 -108 -64 -196 -200 -215 -331 -13 -92 -13 -2294 0 -2393
27 -205 187 -365 392 -392 44 -6 796 -9 1878 -9 1082 0 1834 3 1878 9 205 27
365 187 392 392 13 101 13 2302 0 2393 -24 165 -133 305 -288 367 -55 22 -68
23 -452 28 l-395 5 -510 655 c-286 367 -525 664 -544 677 -23 16 -49 23 -81
23 -32 0 -58 -7 -81 -23z m462 -857 l369 -475 -375 -3 c-206 -1 -544 -1 -750
0 l-375 3 372 478 c204 263 375 476 380 475 5 -2 176 -217 379 -478z m1509
-802 c87 -45 80 62 80 -1268 0 -1125 -1 -1177 -19 -1210 -31 -59 -80 -80 -188
-80 l-93 0 0 235 c0 265 -4 284 -66 331 l-37 29 -491 3 -491 3 -45 -23 c-81
-41 -85 -56 -88 -335 l-3 -243 -1152 0 -1152 0 -39 23 c-21 12 -47 38 -57 57
-18 33 -19 85 -19 1210 0 1126 1 1177 19 1210 10 20 36 44 61 57 l43 23 1846
0 1847 0 44 -22z m-520 -2413 l0 -145 -305 0 -305 0 0 145 0 145 305 0 305 0
0 -145z"/>
<path d="M1040 2560 l0 -150 910 0 910 0 0 150 0 150 -910 0 -910 0 0 -150z"/>
<path d="M1044 2097 c-2 -7 -3 -76 -2 -152 l3 -140 453 -3 452 -2 0 155 0 155
-450 0 c-360 0 -452 -3 -456 -13z"/>
</g>
</svg>
