<?xml version="1.0" standalone="no"?>
<!DOCTYPE svg PUBLIC "-//W3C//DTD SVG 20010904//EN"
 "http://www.w3.org/TR/2001/REC-SVG-20010904/DTD/svg10.dtd">
<svg version="1.0" xmlns="http://www.w3.org/2000/svg"
 width="45.000000pt" height="45.000000pt" viewBox="0 0 512.000000 512.000000"
 preserveAspectRatio="xMidYMid meet">

<g transform="translate(0.000000,512.000000) scale(0.100000,-0.100000)"
fill="#000000" stroke="none">
<path d="M2325 5113 c-245 -29 -415 -66 -610 -133 -137 -47 -364 -154 -493
-232 -318 -192 -658 -532 -850 -849 -170 -283 -295 -624 -347 -954 -22 -137
-31 -481 -16 -631 122 -1217 1088 -2183 2305 -2305 170 -17 496 -7 656 20 265
46 494 120 730 237 277 139 493 296 702 512 366 380 599 844 689 1373 27 159
37 485 20 655 -112 1117 -941 2038 -2038 2264 -166 35 -336 50 -533 49 -102
-1 -198 -4 -215 -6z m441 -364 c874 -85 1611 -675 1885 -1512 253 -770 54
-1621 -515 -2206 -255 -261 -544 -444 -877 -555 -532 -177 -1092 -149 -1607
82 -236 106 -436 246 -638 447 -206 204 -350 408 -458 650 -269 604 -259 1282
29 1871 220 449 608 827 1060 1032 357 162 743 228 1121 191z"/>
</g>
</svg>
