<?xml version="1.0" standalone="no"?>
<!DOCTYPE svg PUBLIC "-//W3C//DTD SVG 20010904//EN"
 "http://www.w3.org/TR/2001/REC-SVG-20010904/DTD/svg10.dtd">
<svg version="1.0" xmlns="http://www.w3.org/2000/svg"
 width="45.000000pt" height="45.000000pt" viewBox="0 0 512.000000 512.000000"
 preserveAspectRatio="xMidYMid meet">

<g transform="translate(0.000000,512.000000) scale(0.100000,-0.100000)"
fill="#000000" stroke="none">
<path d="M1415 4733 c-114 -14 -200 -56 -282 -139 -75 -74 -117 -157 -133
-259 -7 -47 -10 -389 -8 -1055 3 -879 5 -990 20 -1031 53 -152 154 -254 304
-311 l59 -23 1107 -5 1107 -5 271 -315 c322 -373 345 -398 387 -416 68 -29
168 -9 215 43 45 49 48 77 48 393 l0 300 73 0 c171 0 299 46 395 142 64 63
118 168 132 253 13 80 13 1960 0 2039 -27 168 -153 312 -327 374 -44 15 -173
17 -1693 18 -905 1 -1658 0 -1675 -3z m3313 -269 c49 -20 90 -60 113 -109 18
-38 19 -87 19 -1030 0 -943 -1 -992 -19 -1030 -10 -22 -31 -52 -47 -67 -54
-51 -89 -58 -269 -58 -182 0 -206 -6 -244 -59 -20 -27 -21 -44 -23 -307 l-3
-279 -263 305 c-145 168 -278 313 -295 323 -30 16 -104 17 -1155 17 -1229 0
-1160 -3 -1226 58 -16 15 -37 45 -47 67 -18 38 -19 88 -19 1028 0 1081 -3
1026 58 1091 15 16 45 37 67 47 38 18 105 19 1678 19 1458 0 1642 -2 1675 -16z"/>
<path d="M2470 3412 c-39 -20 -80 -89 -80 -133 0 -14 10 -45 23 -69 72 -137
278 -87 280 69 2 114 -120 187 -223 133z"/>
<path d="M2995 3420 c-32 -13 -66 -50 -82 -88 -38 -91 40 -202 143 -202 76 0
154 76 154 152 0 41 -42 109 -80 129 -36 20 -100 24 -135 9z"/>
<path d="M3490 3408 c-54 -37 -72 -69 -72 -128 0 -156 206 -208 279 -70 29 54
29 84 1 140 -40 77 -139 105 -208 58z"/>
<path d="M335 3941 c-178 -64 -297 -199 -325 -371 -7 -44 -10 -383 -8 -1060 3
-945 4 -997 22 -1044 30 -78 66 -135 117 -186 96 -96 214 -140 377 -140 l92 0
0 -305 c0 -284 1 -309 20 -344 37 -74 123 -121 193 -105 74 15 103 44 407 398
l305 355 950 1 c924 0 951 1 982 20 88 53 81 175 -11 220 -43 20 -51 20 -1027
18 -783 -2 -989 -6 -1009 -16 -14 -7 -142 -150 -285 -317 -143 -167 -263 -304
-267 -304 -5 -1 -8 121 -8 270 0 299 -2 307 -64 345 -26 16 -58 20 -216 24
-180 5 -186 6 -223 32 -22 14 -51 43 -65 65 l-27 38 0 1017 0 1016 30 44 c37
51 93 85 155 93 104 14 155 64 147 145 -4 35 -13 51 -41 77 -33 31 -40 33
-103 32 -38 0 -90 -8 -118 -18z"/>
</g>
</svg>
